<svg width="100" height="100" viewBox="0 0 100 100" fill="none" xmlns="http://www.w3.org/2000/svg">
                <path fill-rule="evenodd" clip-rule="evenodd" d="M9.70753 42.35C10.0789 41.6107 10.7282 41.0488 11.5132 40.7876C12.2982 40.5263 13.1547 40.587 13.895 40.9563L50.0013 59L86.1013 40.95C86.4686 40.7624 86.8693 40.6493 87.2805 40.6173C87.6917 40.5853 88.1051 40.635 88.497 40.7636C88.8889 40.8921 89.2514 41.097 89.5637 41.3663C89.8761 41.6357 90.132 41.9642 90.3168 42.3329C90.5015 42.7016 90.6115 43.1032 90.6403 43.5146C90.6691 43.926 90.6162 44.3391 90.4846 44.7299C90.353 45.1208 90.1454 45.4818 89.8736 45.792C89.6019 46.1022 89.2714 46.3556 88.9013 46.5375L51.4013 65.2875C50.9667 65.5053 50.4874 65.6187 50.0013 65.6187C49.5152 65.6187 49.0358 65.5053 48.6013 65.2875L11.1013 46.5375C10.362 46.1662 9.8001 45.5168 9.53883 44.7319C9.27756 43.9469 9.33823 43.0903 9.70753 42.35Z" fill="white"/>
                </svg>